<?xml version="1.0" encoding="utf-8"?><svg viewBox="0 0 16 16" xmlns="http://www.w3.org/2000/svg" xmlns:xlink="http://www.w3.org/1999/xlink"><style>:root>svg{display:none}:root>svg:target{display:block}</style><svg fill="none" viewBox="0 0 8 14" id="arrow" xmlns="http://www.w3.org/2000/svg"><path d="M7 12.5L2 7l5-5.5"/></svg><svg fill="none" viewBox="0 0 8 8" id="close" xmlns="http://www.w3.org/2000/svg"><path d="M1 1l6 6M1 7l6-6"/></svg><svg fill="none" viewBox="0 0 16 16" id="phone" xmlns="http://www.w3.org/2000/svg"><path d="M11.265 15l-.035-.016-.036-.013c-2.96-1.07-5.004-2.216-6.546-3.818-1.542-1.6-2.662-3.735-3.625-6.921l-.009-.03c.835-1.275 1.582-1.896 2.869-2.668.256-.153.645-.114.919.18.688.74 1.148 1.298 1.541 1.877.14.206.158.526-.052.833l-.01.016-.01.016-.953 1.518-.319.507.297.52c.442.774.904 1.482 1.53 2.122.63.646 1.394 1.19 2.407 1.688l.487.24.466-.278 1.16-.69.095-.056.081-.077c.406-.385.968-.352 1.244-.089.606.577 1.061 1.167 1.386 1.917a.356.356 0 010 .31c-.639 1.21-1.443 1.822-2.818 2.867l-.055.042-.009.003a.02.02 0 01-.005 0zm0 0h0s0 0 0 0z" stroke="#000" stroke-width="2"/></svg><svg fill="#909EB7" viewBox="0 0 8 11" id="question" xmlns="http://www.w3.org/2000/svg"><path d="M3.052 6.566c0-.486.107-.887.322-1.204.224-.318.546-.668.966-1.05.308-.28.532-.514.672-.7.149-.196.224-.416.224-.658a.937.937 0 00-.42-.812c-.271-.206-.635-.308-1.092-.308-.439 0-.831.093-1.176.28-.336.177-.621.43-.854.756L0 1.876C.392 1.278.919.816 1.582.49 2.254.163 3.047 0 3.962 0c1.073 0 1.932.228 2.576.686.653.457.98 1.092.98 1.904 0 .382-.066.718-.196 1.008-.122.29-.276.536-.462.742-.178.196-.411.424-.7.686-.346.308-.598.57-.756.784a1.2 1.2 0 00-.238.756H3.052zm1.064 3.514c-.383 0-.705-.122-.966-.364a1.24 1.24 0 01-.378-.91c0-.355.126-.649.378-.882.252-.243.574-.364.966-.364s.714.121.966.364c.252.233.378.527.378.882 0 .354-.131.658-.392.91-.252.242-.57.364-.952.364z"/><path d="M3.052 6.566c0-.486.107-.887.322-1.204.224-.318.546-.668.966-1.05.308-.28.532-.514.672-.7.149-.196.224-.416.224-.658a.937.937 0 00-.42-.812c-.271-.206-.635-.308-1.092-.308-.439 0-.831.093-1.176.28-.336.177-.621.43-.854.756L0 1.876C.392 1.278.919.816 1.582.49 2.254.163 3.047 0 3.962 0c1.073 0 1.932.228 2.576.686.653.457.98 1.092.98 1.904 0 .382-.066.718-.196 1.008-.122.29-.276.536-.462.742-.178.196-.411.424-.7.686-.346.308-.598.57-.756.784a1.2 1.2 0 00-.238.756H3.052zm1.064 3.514c-.383 0-.705-.122-.966-.364a1.24 1.24 0 01-.378-.91c0-.355.126-.649.378-.882.252-.243.574-.364.966-.364s.714.121.966.364c.252.233.378.527.378.882 0 .354-.131.658-.392.91-.252.242-.57.364-.952.364z"/><path d="M3.052 6.566c0-.486.107-.887.322-1.204.224-.318.546-.668.966-1.05.308-.28.532-.514.672-.7.149-.196.224-.416.224-.658a.937.937 0 00-.42-.812c-.271-.206-.635-.308-1.092-.308-.439 0-.831.093-1.176.28-.336.177-.621.43-.854.756L0 1.876C.392 1.278.919.816 1.582.49 2.254.163 3.047 0 3.962 0c1.073 0 1.932.228 2.576.686.653.457.98 1.092.98 1.904 0 .382-.066.718-.196 1.008-.122.29-.276.536-.462.742-.178.196-.411.424-.7.686-.346.308-.598.57-.756.784a1.2 1.2 0 00-.238.756H3.052zm1.064 3.514c-.383 0-.705-.122-.966-.364a1.24 1.24 0 01-.378-.91c0-.355.126-.649.378-.882.252-.243.574-.364.966-.364s.714.121.966.364c.252.233.378.527.378.882 0 .354-.131.658-.392.91-.252.242-.57.364-.952.364z"/></svg></svg>